<svg xmlns="http://www.w3.org/2000/svg" viewBox="390 390 220 220" role="img" aria-label="OptifAI">
  <style>
    path { fill: #000000; }
    @media (prefers-color-scheme: dark) {
      path { fill: #ffffff; }
    }
  </style>
  <g transform="translate(0,1000) scale(0.1,-0.1)" stroke="none">
    <path d="M4205 5991 c-37 -15 -60 -51 -60 -92 0 -38 9 -48 347 -387 190 -191 351 -357 357 -369 18 -36 13 -80 -13 -110 l-24 -28 -306 -5 -306 -5 -27 -28 c-21 -20 -28 -37 -28 -67 0 -40 7 -47 405 -446 223 -223 423 -415 445 -427 39 -21 51 -22 409 -25 400 -3 415 -1 441 49 34 66 40 58 -334 434 -192 192 -354 360 -360 372 -19 38 -13 79 18 112 l29 31 292 0 c256 0 295 2 321 17 34 21 53 62 45 100 -5 21 -125 147 -419 440 -394 393 -414 412 -466 427 -45 13 -113 16 -400 15 -190 0 -355 -4 -366 -8z"/>
  </g>
</svg>
